<svg width="512" height="512" xmlns="http://www.w3.org/2000/svg">

 <g>
  <title>background</title>
  <rect fill="none" id="canvas_background" height="402" width="582" y="-1" x="-1"/>
 </g>
 <g>
  <title>Layer 1</title>
  <path fill="#ffffff" id="svg_1" d="m336,272c0,44.188 -35.813,80 -80,80s-80,-35.813 -80,-80s35.813,-80 80,-80s80,35.813 80,80zm176,-128l0,256c0,17.688 -14.313,32 -32,32l-448,0c-17.688,0 -32,-14.313 -32,-32l0,-256c0,-17.688 14.313,-32 32,-32l32,0c0,-17.688 14.328,-32 32,-32l32,0c17.672,0 32,14.313 32,32l320,0c17.688,0 32,14.313 32,32zm-144,128c0,-61.75 -50.25,-112 -112,-112s-112,50.25 -112,112s50.25,112 112,112s112,-50.25 112,-112zm80,-128l-64,0l0,32l64,0l0,-32z"/>
  <polyline stroke-linecap="round" id="svg_2" points="-162.5,-2 -161.5,-1 " stroke-width="null" fill="white"/>
 </g>
</svg>